<svg width="48" height="46" viewBox="0 0 48 46" fill="none" xmlns="http://www.w3.org/2000/svg">
<g filter="url(#filter0_d_72_20)">
<path d="M24 0C18.5 0 14 5.32 14 11.875C14 18.43 18.5 23.75 24 23.75C29.5 23.75 34 18.43 34 11.875C34 5.32 29.5 0 24 0ZM13.55 23.75C8.25 23.9875 4 28.12 4 33.25V38H44V33.25C44 28.12 39.8 23.9875 34.45 23.75C31.75 26.6475 28.05 28.5 24 28.5C19.95 28.5 16.25 26.6475 13.55 23.75Z" fill="black"/>
</g>
<defs>
<filter id="filter0_d_72_20" x="0" y="0" width="48" height="46" filterUnits="userSpaceOnUse" color-interpolation-filters="sRGB">
<feFlood flood-opacity="0" result="BackgroundImageFix"/>
<feColorMatrix in="SourceAlpha" type="matrix" values="0 0 0 0 0 0 0 0 0 0 0 0 0 0 0 0 0 0 127 0" result="hardAlpha"/>
<feOffset dy="4"/>
<feGaussianBlur stdDeviation="2"/>
<feComposite in2="hardAlpha" operator="out"/>
<feColorMatrix type="matrix" values="0 0 0 0 0 0 0 0 0 0 0 0 0 0 0 0 0 0 0.25 0"/>
<feBlend mode="normal" in2="BackgroundImageFix" result="effect1_dropShadow_72_20"/>
<feBlend mode="normal" in="SourceGraphic" in2="effect1_dropShadow_72_20" result="shape"/>
</filter>
</defs>
</svg>
